<svg width="553" height="765" viewBox="0 0 553 765" fill="none" xmlns="http://www.w3.org/2000/svg">
<ellipse cx="25.9095" cy="12.4446" rx="25.9095" ry="12.4446" transform="matrix(0.829861 -0.55797 0.497717 0.86734 2.75208 29.076)" fill="#2B315E" fill-opacity="0.63"/>
<ellipse cx="25.9095" cy="12.4446" rx="25.9095" ry="12.4446" transform="matrix(0.829861 -0.55797 0.497717 0.86734 2.20093 79.902)" fill="#2B315E" fill-opacity="0.63"/>
<ellipse cx="25.9095" cy="12.4446" rx="25.9095" ry="12.4446" transform="matrix(0.829861 -0.55797 0.497717 0.86734 2.20093 130.728)" fill="#2B315E" fill-opacity="0.63"/>
<ellipse cx="25.9095" cy="12.4446" rx="25.9095" ry="12.4446" transform="matrix(0.829861 -0.55797 0.497717 0.86734 2.93457 181.554)" fill="#2B315E" fill-opacity="0.63"/>
<ellipse cx="25.9095" cy="12.4446" rx="25.9095" ry="12.4446" transform="matrix(0.829861 -0.55797 0.497717 0.86734 2.93457 232.38)" fill="#2B315E" fill-opacity="0.63"/>
<ellipse cx="25.9095" cy="12.4446" rx="25.9095" ry="12.4446" transform="matrix(0.829861 -0.55797 0.497717 0.86734 57.9597 28.9134)" fill="#2B315E" fill-opacity="0.63"/>
<ellipse cx="25.9095" cy="12.4446" rx="25.9095" ry="12.4446" transform="matrix(0.829861 -0.55797 0.497717 0.86734 57.4087 79.7394)" fill="#2B315E" fill-opacity="0.63"/>
<ellipse cx="25.9095" cy="12.4446" rx="25.9095" ry="12.4446" transform="matrix(0.829861 -0.55797 0.497717 0.86734 57.4087 130.565)" fill="#2B315E" fill-opacity="0.63"/>
<ellipse cx="25.9095" cy="12.4446" rx="25.9095" ry="12.4446" transform="matrix(0.829861 -0.55797 0.497717 0.86734 58.1423 181.391)" fill="#2B315E" fill-opacity="0.63"/>
<ellipse cx="25.9095" cy="12.4446" rx="25.9095" ry="12.4446" transform="matrix(0.829861 -0.55797 0.497717 0.86734 58.1423 232.217)" fill="#2B315E" fill-opacity="0.63"/>
<ellipse cx="25.9095" cy="12.4446" rx="25.9095" ry="12.4446" transform="matrix(0.829861 -0.55797 0.497717 0.86734 112.985 28.9134)" fill="#2B315E" fill-opacity="0.63"/>
<ellipse cx="25.9095" cy="12.4446" rx="25.9095" ry="12.4446" transform="matrix(0.829861 -0.55797 0.497717 0.86734 112.434 79.7394)" fill="#2B315E" fill-opacity="0.63"/>
<ellipse cx="25.9095" cy="12.4446" rx="25.9095" ry="12.4446" transform="matrix(0.829861 -0.55797 0.497717 0.86734 112.434 130.565)" fill="#2B315E" fill-opacity="0.63"/>
<ellipse cx="25.9095" cy="12.4446" rx="25.9095" ry="12.4446" transform="matrix(0.829861 -0.55797 0.497717 0.86734 113.167 181.391)" fill="#2B315E" fill-opacity="0.63"/>
<ellipse cx="25.9095" cy="12.4446" rx="25.9095" ry="12.4446" transform="matrix(0.829861 -0.55797 0.497717 0.86734 113.167 232.217)" fill="#2B315E" fill-opacity="0.63"/>
<ellipse cx="25.9095" cy="12.4446" rx="25.9095" ry="12.4446" transform="matrix(0.829861 -0.55797 0.497717 0.86734 168.01 28.9134)" fill="#2B315E" fill-opacity="0.63"/>
<ellipse cx="25.9095" cy="12.4446" rx="25.9095" ry="12.4446" transform="matrix(0.829861 -0.55797 0.497717 0.86734 167.459 79.7394)" fill="#2B315E" fill-opacity="0.63"/>
<ellipse cx="25.9095" cy="12.4446" rx="25.9095" ry="12.4446" transform="matrix(0.829861 -0.55797 0.497717 0.86734 167.459 130.565)" fill="#2B315E" fill-opacity="0.63"/>
<ellipse cx="25.9095" cy="12.4446" rx="25.9095" ry="12.4446" transform="matrix(0.829861 -0.55797 0.497717 0.86734 168.193 181.391)" fill="#2B315E" fill-opacity="0.63"/>
<ellipse cx="25.9094" cy="12.4446" rx="25.9094" ry="12.4446" transform="matrix(0.829861 -0.55797 0.497717 0.86734 168.193 232.217)" fill="#2B315E" fill-opacity="0.63"/>
<ellipse cx="25.9095" cy="12.4446" rx="25.9095" ry="12.4446" transform="matrix(0.829861 -0.55797 0.497717 0.86734 223.035 28.9134)" fill="#2B315E" fill-opacity="0.63"/>
<ellipse cx="25.9095" cy="12.4446" rx="25.9095" ry="12.4446" transform="matrix(0.829861 -0.55797 0.497717 0.86734 222.484 79.7394)" fill="#2B315E" fill-opacity="0.63"/>
<ellipse cx="25.9095" cy="12.4446" rx="25.9095" ry="12.4446" transform="matrix(0.829861 -0.55797 0.497717 0.86734 222.484 130.565)" fill="#2B315E" fill-opacity="0.63"/>
<ellipse cx="25.9095" cy="12.4446" rx="25.9095" ry="12.4446" transform="matrix(0.829861 -0.55797 0.497717 0.86734 223.218 181.391)" fill="#2B315E" fill-opacity="0.63"/>
<ellipse cx="25.9095" cy="12.4446" rx="25.9095" ry="12.4446" transform="matrix(0.829861 -0.55797 0.497717 0.86734 223.218 232.217)" fill="#2B315E" fill-opacity="0.63"/>
<ellipse cx="25.9095" cy="12.4446" rx="25.9095" ry="12.4446" transform="matrix(0.829861 -0.55797 0.497717 0.86734 277.144 29.076)" fill="#2B315E" fill-opacity="0.63"/>
<ellipse cx="25.9095" cy="12.4446" rx="25.9095" ry="12.4446" transform="matrix(0.829861 -0.55797 0.497717 0.86734 276.593 79.902)" fill="#2B315E" fill-opacity="0.63"/>
<ellipse cx="25.9095" cy="12.4446" rx="25.9095" ry="12.4446" transform="matrix(0.829861 -0.55797 0.497717 0.86734 276.593 130.728)" fill="#2B315E" fill-opacity="0.63"/>
<ellipse cx="25.9095" cy="12.4446" rx="25.9095" ry="12.4446" transform="matrix(0.829861 -0.55797 0.497717 0.86734 277.327 181.554)" fill="#2B315E" fill-opacity="0.63"/>
<ellipse cx="25.9095" cy="12.4446" rx="25.9095" ry="12.4446" transform="matrix(0.829861 -0.55797 0.497717 0.86734 277.327 232.38)" fill="#2B315E" fill-opacity="0.63"/>
<ellipse cx="25.9095" cy="12.4446" rx="25.9095" ry="12.4446" transform="matrix(0.829861 -0.55797 0.497717 0.86734 332.352 28.9134)" fill="#2B315E" fill-opacity="0.63"/>
<ellipse cx="25.9095" cy="12.4446" rx="25.9095" ry="12.4446" transform="matrix(0.829861 -0.55797 0.497717 0.86734 331.801 79.7394)" fill="#2B315E" fill-opacity="0.63"/>
<ellipse cx="25.9095" cy="12.4446" rx="25.9095" ry="12.4446" transform="matrix(0.829861 -0.55797 0.497717 0.86734 331.801 130.565)" fill="#2B315E" fill-opacity="0.63"/>
<ellipse cx="25.9095" cy="12.4446" rx="25.9095" ry="12.4446" transform="matrix(0.829861 -0.55797 0.497717 0.86734 332.534 181.391)" fill="#2B315E" fill-opacity="0.63"/>
<ellipse cx="25.9095" cy="12.4446" rx="25.9095" ry="12.4446" transform="matrix(0.829861 -0.55797 0.497717 0.86734 332.534 232.217)" fill="#2B315E" fill-opacity="0.63"/>
<ellipse cx="25.9095" cy="12.4446" rx="25.9095" ry="12.4446" transform="matrix(0.829861 -0.55797 0.497717 0.86734 387.377 28.9134)" fill="#2B315E" fill-opacity="0.63"/>
<ellipse cx="25.9095" cy="12.4446" rx="25.9095" ry="12.4446" transform="matrix(0.829861 -0.55797 0.497717 0.86734 386.826 79.7394)" fill="#2B315E" fill-opacity="0.63"/>
<ellipse cx="25.9095" cy="12.4446" rx="25.9095" ry="12.4446" transform="matrix(0.829861 -0.55797 0.497717 0.86734 386.826 130.565)" fill="#2B315E" fill-opacity="0.63"/>
<ellipse cx="25.9095" cy="12.4446" rx="25.9095" ry="12.4446" transform="matrix(0.829861 -0.55797 0.497717 0.86734 387.56 181.391)" fill="#2B315E" fill-opacity="0.63"/>
<ellipse cx="25.9095" cy="12.4446" rx="25.9095" ry="12.4446" transform="matrix(0.829861 -0.55797 0.497717 0.86734 387.56 232.217)" fill="#2B315E" fill-opacity="0.63"/>
<ellipse cx="25.9095" cy="12.4446" rx="25.9095" ry="12.4446" transform="matrix(0.829861 -0.55797 0.497717 0.86734 442.402 28.9134)" fill="#2B315E" fill-opacity="0.63"/>
<ellipse cx="25.9095" cy="12.4446" rx="25.9095" ry="12.4446" transform="matrix(0.829861 -0.55797 0.497717 0.86734 441.851 79.7394)" fill="#2B315E" fill-opacity="0.63"/>
<ellipse cx="25.9095" cy="12.4446" rx="25.9095" ry="12.4446" transform="matrix(0.829861 -0.55797 0.497717 0.86734 441.851 130.565)" fill="#2B315E" fill-opacity="0.63"/>
<ellipse cx="25.9095" cy="12.4446" rx="25.9095" ry="12.4446" transform="matrix(0.829861 -0.55797 0.497717 0.86734 442.585 181.391)" fill="#2B315E" fill-opacity="0.63"/>
<ellipse cx="25.9094" cy="12.4446" rx="25.9094" ry="12.4446" transform="matrix(0.829861 -0.55797 0.497717 0.86734 442.585 232.217)" fill="#2B315E" fill-opacity="0.63"/>
<ellipse cx="25.9095" cy="12.4446" rx="25.9095" ry="12.4446" transform="matrix(0.829861 -0.55797 0.497717 0.86734 497.427 28.9134)" fill="#2B315E" fill-opacity="0.63"/>
<ellipse cx="25.9095" cy="12.4446" rx="25.9095" ry="12.4446" transform="matrix(0.829861 -0.55797 0.497717 0.86734 496.876 79.7394)" fill="#2B315E" fill-opacity="0.63"/>
<ellipse cx="25.9095" cy="12.4446" rx="25.9095" ry="12.4446" transform="matrix(0.829861 -0.55797 0.497717 0.86734 496.876 130.565)" fill="#2B315E" fill-opacity="0.63"/>
<ellipse cx="25.9095" cy="12.4446" rx="25.9095" ry="12.4446" transform="matrix(0.829861 -0.55797 0.497717 0.86734 497.61 181.391)" fill="#2B315E" fill-opacity="0.63"/>
<ellipse cx="25.9095" cy="12.4446" rx="25.9095" ry="12.4446" transform="matrix(0.829861 -0.55797 0.497717 0.86734 497.61 232.217)" fill="#2B315E" fill-opacity="0.63"/>
<ellipse cx="25.9095" cy="12.4446" rx="25.9095" ry="12.4446" transform="matrix(0.829861 -0.55797 0.497717 0.86734 0.551147 283.206)" fill="#2B315E" fill-opacity="0.63"/>
<ellipse cx="25.9095" cy="12.4446" rx="25.9095" ry="12.4446" transform="matrix(0.829861 -0.55797 0.497717 0.86734 0 334.032)" fill="#2B315E" fill-opacity="0.63"/>
<ellipse cx="25.9095" cy="12.4446" rx="25.9095" ry="12.4446" transform="matrix(0.829861 -0.55797 0.497717 0.86734 0 384.858)" fill="#2B315E" fill-opacity="0.63"/>
<ellipse cx="25.9095" cy="12.4446" rx="25.9095" ry="12.4446" transform="matrix(0.829861 -0.55797 0.497717 0.86734 0.733643 435.684)" fill="#2B315E" fill-opacity="0.63"/>
<ellipse cx="25.9095" cy="12.4446" rx="25.9095" ry="12.4446" transform="matrix(0.829861 -0.55797 0.497717 0.86734 0.733643 486.51)" fill="#2B315E" fill-opacity="0.63"/>
<ellipse cx="25.9095" cy="12.4446" rx="25.9095" ry="12.4446" transform="matrix(0.829861 -0.55797 0.497717 0.86734 55.7588 283.043)" fill="#2B315E" fill-opacity="0.63"/>
<ellipse cx="25.9095" cy="12.4446" rx="25.9095" ry="12.4446" transform="matrix(0.829861 -0.55797 0.497717 0.86734 55.2078 333.87)" fill="#2B315E" fill-opacity="0.63"/>
<ellipse cx="25.9095" cy="12.4446" rx="25.9095" ry="12.4446" transform="matrix(0.829861 -0.55797 0.497717 0.86734 55.2078 384.695)" fill="#2B315E" fill-opacity="0.63"/>
<ellipse cx="25.9095" cy="12.4446" rx="25.9095" ry="12.4446" transform="matrix(0.829861 -0.55797 0.497717 0.86734 55.9414 435.521)" fill="#2B315E" fill-opacity="0.63"/>
<ellipse cx="25.9095" cy="12.4446" rx="25.9095" ry="12.4446" transform="matrix(0.829861 -0.55797 0.497717 0.86734 55.9414 486.348)" fill="#2B315E" fill-opacity="0.63"/>
<ellipse cx="25.9095" cy="12.4446" rx="25.9095" ry="12.4446" transform="matrix(0.829861 -0.55797 0.497717 0.86734 110.784 283.043)" fill="#2B315E" fill-opacity="0.63"/>
<ellipse cx="25.9095" cy="12.4446" rx="25.9095" ry="12.4446" transform="matrix(0.829861 -0.55797 0.497717 0.86734 110.233 333.87)" fill="#2B315E" fill-opacity="0.63"/>
<ellipse cx="25.9095" cy="12.4446" rx="25.9095" ry="12.4446" transform="matrix(0.829861 -0.55797 0.497717 0.86734 110.233 384.695)" fill="#2B315E" fill-opacity="0.63"/>
<ellipse cx="25.9095" cy="12.4446" rx="25.9095" ry="12.4446" transform="matrix(0.829861 -0.55797 0.497717 0.86734 110.967 435.521)" fill="#2B315E" fill-opacity="0.63"/>
<ellipse cx="25.9095" cy="12.4446" rx="25.9095" ry="12.4446" transform="matrix(0.829861 -0.55797 0.497717 0.86734 110.967 486.348)" fill="#2B315E" fill-opacity="0.63"/>
<ellipse cx="25.9095" cy="12.4446" rx="25.9095" ry="12.4446" transform="matrix(0.829861 -0.55797 0.497717 0.86734 165.809 283.043)" fill="#2B315E" fill-opacity="0.63"/>
<ellipse cx="25.9095" cy="12.4446" rx="25.9095" ry="12.4446" transform="matrix(0.829861 -0.55797 0.497717 0.86734 165.258 333.87)" fill="#2B315E" fill-opacity="0.63"/>
<ellipse cx="25.9095" cy="12.4446" rx="25.9095" ry="12.4446" transform="matrix(0.829861 -0.55797 0.497717 0.86734 165.258 384.695)" fill="#2B315E" fill-opacity="0.63"/>
<ellipse cx="25.9095" cy="12.4446" rx="25.9095" ry="12.4446" transform="matrix(0.829861 -0.55797 0.497717 0.86734 165.992 435.521)" fill="#2B315E" fill-opacity="0.63"/>
<ellipse cx="25.9094" cy="12.4446" rx="25.9094" ry="12.4446" transform="matrix(0.829861 -0.55797 0.497717 0.86734 165.992 486.348)" fill="#2B315E" fill-opacity="0.63"/>
<ellipse cx="25.9095" cy="12.4446" rx="25.9095" ry="12.4446" transform="matrix(0.829861 -0.55797 0.497717 0.86734 220.834 283.043)" fill="#2B315E" fill-opacity="0.63"/>
<ellipse cx="25.9095" cy="12.4446" rx="25.9095" ry="12.4446" transform="matrix(0.829861 -0.55797 0.497717 0.86734 220.283 333.87)" fill="#2B315E" fill-opacity="0.63"/>
<ellipse cx="25.9095" cy="12.4446" rx="25.9095" ry="12.4446" transform="matrix(0.829861 -0.55797 0.497717 0.86734 220.283 384.695)" fill="#2B315E" fill-opacity="0.63"/>
<ellipse cx="25.9095" cy="12.4446" rx="25.9095" ry="12.4446" transform="matrix(0.829861 -0.55797 0.497717 0.86734 221.017 435.521)" fill="#2B315E" fill-opacity="0.63"/>
<ellipse cx="25.9095" cy="12.4446" rx="25.9095" ry="12.4446" transform="matrix(0.829861 -0.55797 0.497717 0.86734 221.017 486.348)" fill="#2B315E" fill-opacity="0.63"/>
<ellipse cx="25.9095" cy="12.4446" rx="25.9095" ry="12.4446" transform="matrix(0.829861 -0.55797 0.497717 0.86734 276.41 283.206)" fill="#2B315E" fill-opacity="0.63"/>
<ellipse cx="25.9095" cy="12.4446" rx="25.9095" ry="12.4446" transform="matrix(0.829861 -0.55797 0.497717 0.86734 275.859 334.032)" fill="#2B315E" fill-opacity="0.63"/>
<ellipse cx="25.9095" cy="12.4446" rx="25.9095" ry="12.4446" transform="matrix(0.829861 -0.55797 0.497717 0.86734 275.859 384.858)" fill="#2B315E" fill-opacity="0.63"/>
<ellipse cx="25.9095" cy="12.4446" rx="25.9095" ry="12.4446" transform="matrix(0.829861 -0.55797 0.497717 0.86734 276.593 435.684)" fill="#2B315E" fill-opacity="0.63"/>
<ellipse cx="25.9095" cy="12.4446" rx="25.9095" ry="12.4446" transform="matrix(0.829861 -0.55797 0.497717 0.86734 276.593 486.51)" fill="#2B315E" fill-opacity="0.63"/>
<ellipse cx="25.9095" cy="12.4446" rx="25.9095" ry="12.4446" transform="matrix(0.829861 -0.55797 0.497717 0.86734 331.618 283.043)" fill="#2B315E" fill-opacity="0.63"/>
<ellipse cx="25.9095" cy="12.4446" rx="25.9095" ry="12.4446" transform="matrix(0.829861 -0.55797 0.497717 0.86734 331.067 333.87)" fill="#2B315E" fill-opacity="0.63"/>
<ellipse cx="25.9095" cy="12.4446" rx="25.9095" ry="12.4446" transform="matrix(0.829861 -0.55797 0.497717 0.86734 331.067 384.695)" fill="#2B315E" fill-opacity="0.63"/>
<ellipse cx="25.9095" cy="12.4446" rx="25.9095" ry="12.4446" transform="matrix(0.829861 -0.55797 0.497717 0.86734 331.801 435.521)" fill="#2B315E" fill-opacity="0.63"/>
<ellipse cx="25.9095" cy="12.4446" rx="25.9095" ry="12.4446" transform="matrix(0.829861 -0.55797 0.497717 0.86734 331.801 486.348)" fill="#2B315E" fill-opacity="0.63"/>
<ellipse cx="25.9095" cy="12.4446" rx="25.9095" ry="12.4446" transform="matrix(0.829861 -0.55797 0.497717 0.86734 386.643 283.043)" fill="#2B315E" fill-opacity="0.63"/>
<ellipse cx="25.9095" cy="12.4446" rx="25.9095" ry="12.4446" transform="matrix(0.829861 -0.55797 0.497717 0.86734 386.092 333.87)" fill="#2B315E" fill-opacity="0.63"/>
<ellipse cx="25.9095" cy="12.4446" rx="25.9095" ry="12.4446" transform="matrix(0.829861 -0.55797 0.497717 0.86734 386.092 384.695)" fill="#2B315E" fill-opacity="0.63"/>
<ellipse cx="25.9095" cy="12.4446" rx="25.9095" ry="12.4446" transform="matrix(0.829861 -0.55797 0.497717 0.86734 386.826 435.521)" fill="#2B315E" fill-opacity="0.63"/>
<ellipse cx="25.9095" cy="12.4446" rx="25.9095" ry="12.4446" transform="matrix(0.829861 -0.55797 0.497717 0.86734 386.826 486.348)" fill="#2B315E" fill-opacity="0.63"/>
<ellipse cx="25.9095" cy="12.4446" rx="25.9095" ry="12.4446" transform="matrix(0.829861 -0.55797 0.497717 0.86734 441.668 283.043)" fill="#2B315E" fill-opacity="0.63"/>
<ellipse cx="25.9095" cy="12.4446" rx="25.9095" ry="12.4446" transform="matrix(0.829861 -0.55797 0.497717 0.86734 441.117 333.87)" fill="#2B315E" fill-opacity="0.63"/>
<ellipse cx="25.9095" cy="12.4446" rx="25.9095" ry="12.4446" transform="matrix(0.829861 -0.55797 0.497717 0.86734 441.117 384.695)" fill="#2B315E" fill-opacity="0.63"/>
<ellipse cx="25.9095" cy="12.4446" rx="25.9095" ry="12.4446" transform="matrix(0.829861 -0.55797 0.497717 0.86734 441.851 435.521)" fill="#2B315E" fill-opacity="0.63"/>
<ellipse cx="25.9094" cy="12.4446" rx="25.9094" ry="12.4446" transform="matrix(0.829861 -0.55797 0.497717 0.86734 441.851 486.348)" fill="#2B315E" fill-opacity="0.63"/>
<ellipse cx="25.9095" cy="12.4446" rx="25.9095" ry="12.4446" transform="matrix(0.829861 -0.55797 0.497717 0.86734 496.694 283.043)" fill="#2B315E" fill-opacity="0.63"/>
<ellipse cx="25.9095" cy="12.4446" rx="25.9095" ry="12.4446" transform="matrix(0.829861 -0.55797 0.497717 0.86734 496.142 333.87)" fill="#2B315E" fill-opacity="0.63"/>
<ellipse cx="25.9095" cy="12.4446" rx="25.9095" ry="12.4446" transform="matrix(0.829861 -0.55797 0.497717 0.86734 496.142 384.695)" fill="#2B315E" fill-opacity="0.63"/>
<ellipse cx="25.9095" cy="12.4446" rx="25.9095" ry="12.4446" transform="matrix(0.829861 -0.55797 0.497717 0.86734 496.876 435.521)" fill="#2B315E" fill-opacity="0.63"/>
<ellipse cx="25.9095" cy="12.4446" rx="25.9095" ry="12.4446" transform="matrix(0.829861 -0.55797 0.497717 0.86734 496.876 486.348)" fill="#2B315E" fill-opacity="0.63"/>
<ellipse cx="25.9095" cy="12.4446" rx="25.9095" ry="12.4446" transform="matrix(0.829861 -0.55797 0.497717 0.86734 1.28479 539.719)" fill="#2B315E" fill-opacity="0.63"/>
<ellipse cx="25.9095" cy="12.4446" rx="25.9095" ry="12.4446" transform="matrix(0.829861 -0.55797 0.497717 0.86734 0.733643 590.545)" fill="#2B315E" fill-opacity="0.63"/>
<ellipse cx="25.9095" cy="12.4446" rx="25.9095" ry="12.4446" transform="matrix(0.829861 -0.55797 0.497717 0.86734 0.733643 641.371)" fill="#2B315E" fill-opacity="0.63"/>
<ellipse cx="25.9095" cy="12.4446" rx="25.9095" ry="12.4446" transform="matrix(0.829861 -0.55797 0.497717 0.86734 1.46729 692.197)" fill="#2B315E" fill-opacity="0.63"/>
<ellipse cx="25.9095" cy="12.4446" rx="25.9095" ry="12.4446" transform="matrix(0.829861 -0.55797 0.497717 0.86734 1.46729 743.023)" fill="#2B315E" fill-opacity="0.63"/>
<ellipse cx="25.9095" cy="12.4446" rx="25.9095" ry="12.4446" transform="matrix(0.829861 -0.55797 0.497717 0.86734 56.4924 539.556)" fill="#2B315E" fill-opacity="0.63"/>
<ellipse cx="25.9095" cy="12.4446" rx="25.9095" ry="12.4446" transform="matrix(0.829861 -0.55797 0.497717 0.86734 55.9414 590.382)" fill="#2B315E" fill-opacity="0.63"/>
<ellipse cx="25.9095" cy="12.4446" rx="25.9095" ry="12.4446" transform="matrix(0.829861 -0.55797 0.497717 0.86734 55.9414 641.208)" fill="#2B315E" fill-opacity="0.63"/>
<ellipse cx="25.9095" cy="12.4446" rx="25.9095" ry="12.4446" transform="matrix(0.829861 -0.55797 0.497717 0.86734 56.675 692.034)" fill="#2B315E" fill-opacity="0.63"/>
<ellipse cx="25.9095" cy="12.4446" rx="25.9095" ry="12.4446" transform="matrix(0.829861 -0.55797 0.497717 0.86734 56.675 742.86)" fill="#2B315E" fill-opacity="0.63"/>
<ellipse cx="25.9095" cy="12.4446" rx="25.9095" ry="12.4446" transform="matrix(0.829861 -0.55797 0.497717 0.86734 111.518 539.556)" fill="#2B315E" fill-opacity="0.63"/>
<ellipse cx="25.9095" cy="12.4446" rx="25.9095" ry="12.4446" transform="matrix(0.829861 -0.55797 0.497717 0.86734 110.966 590.382)" fill="#2B315E" fill-opacity="0.63"/>
<ellipse cx="25.9095" cy="12.4446" rx="25.9095" ry="12.4446" transform="matrix(0.829861 -0.55797 0.497717 0.86734 110.966 641.208)" fill="#2B315E" fill-opacity="0.63"/>
<ellipse cx="25.9095" cy="12.4446" rx="25.9095" ry="12.4446" transform="matrix(0.829861 -0.55797 0.497717 0.86734 111.7 692.034)" fill="#2B315E" fill-opacity="0.63"/>
<ellipse cx="25.9095" cy="12.4446" rx="25.9095" ry="12.4446" transform="matrix(0.829861 -0.55797 0.497717 0.86734 111.7 742.86)" fill="#2B315E" fill-opacity="0.63"/>
<ellipse cx="25.9095" cy="12.4446" rx="25.9095" ry="12.4446" transform="matrix(0.829861 -0.55797 0.497717 0.86734 166.543 539.556)" fill="#2B315E" fill-opacity="0.63"/>
<ellipse cx="25.9095" cy="12.4446" rx="25.9095" ry="12.4446" transform="matrix(0.829861 -0.55797 0.497717 0.86734 165.991 590.382)" fill="#2B315E" fill-opacity="0.63"/>
<ellipse cx="25.9095" cy="12.4446" rx="25.9095" ry="12.4446" transform="matrix(0.829861 -0.55797 0.497717 0.86734 165.991 641.208)" fill="#2B315E" fill-opacity="0.63"/>
<ellipse cx="25.9095" cy="12.4446" rx="25.9095" ry="12.4446" transform="matrix(0.829861 -0.55797 0.497717 0.86734 166.725 692.034)" fill="#2B315E" fill-opacity="0.63"/>
<ellipse cx="25.9094" cy="12.4446" rx="25.9094" ry="12.4446" transform="matrix(0.829861 -0.55797 0.497717 0.86734 166.725 742.86)" fill="#2B315E" fill-opacity="0.63"/>
<ellipse cx="25.9095" cy="12.4446" rx="25.9095" ry="12.4446" transform="matrix(0.829861 -0.55797 0.497717 0.86734 221.568 539.556)" fill="#2B315E" fill-opacity="0.63"/>
<ellipse cx="25.9095" cy="12.4446" rx="25.9095" ry="12.4446" transform="matrix(0.829861 -0.55797 0.497717 0.86734 221.017 590.382)" fill="#2B315E" fill-opacity="0.63"/>
<ellipse cx="25.9095" cy="12.4446" rx="25.9095" ry="12.4446" transform="matrix(0.829861 -0.55797 0.497717 0.86734 221.017 641.208)" fill="#2B315E" fill-opacity="0.63"/>
<ellipse cx="25.9095" cy="12.4446" rx="25.9095" ry="12.4446" transform="matrix(0.829861 -0.55797 0.497717 0.86734 221.75 692.034)" fill="#2B315E" fill-opacity="0.63"/>
<ellipse cx="25.9095" cy="12.4446" rx="25.9095" ry="12.4446" transform="matrix(0.829861 -0.55797 0.497717 0.86734 221.75 742.86)" fill="#2B315E" fill-opacity="0.63"/>
<ellipse cx="25.9095" cy="12.4446" rx="25.9095" ry="12.4446" transform="matrix(0.829861 -0.55797 0.497717 0.86734 275.677 539.719)" fill="#2B315E" fill-opacity="0.63"/>
<ellipse cx="25.9095" cy="12.4446" rx="25.9095" ry="12.4446" transform="matrix(0.829861 -0.55797 0.497717 0.86734 275.126 590.545)" fill="#2B315E" fill-opacity="0.63"/>
<ellipse cx="25.9095" cy="12.4446" rx="25.9095" ry="12.4446" transform="matrix(0.829861 -0.55797 0.497717 0.86734 275.126 641.371)" fill="#2B315E" fill-opacity="0.63"/>
<ellipse cx="25.9095" cy="12.4446" rx="25.9095" ry="12.4446" transform="matrix(0.829861 -0.55797 0.497717 0.86734 275.859 692.197)" fill="#2B315E" fill-opacity="0.63"/>
<ellipse cx="25.9095" cy="12.4446" rx="25.9095" ry="12.4446" transform="matrix(0.829861 -0.55797 0.497717 0.86734 275.859 743.023)" fill="#2B315E" fill-opacity="0.63"/>
<ellipse cx="25.9095" cy="12.4446" rx="25.9095" ry="12.4446" transform="matrix(0.829861 -0.55797 0.497717 0.86734 330.885 539.556)" fill="#2B315E" fill-opacity="0.63"/>
<ellipse cx="25.9095" cy="12.4446" rx="25.9095" ry="12.4446" transform="matrix(0.829861 -0.55797 0.497717 0.86734 330.333 590.382)" fill="#2B315E" fill-opacity="0.63"/>
<ellipse cx="25.9095" cy="12.4446" rx="25.9095" ry="12.4446" transform="matrix(0.829861 -0.55797 0.497717 0.86734 330.333 641.208)" fill="#2B315E" fill-opacity="0.63"/>
<ellipse cx="25.9095" cy="12.4446" rx="25.9095" ry="12.4446" transform="matrix(0.829861 -0.55797 0.497717 0.86734 331.067 692.034)" fill="#2B315E" fill-opacity="0.63"/>
<ellipse cx="25.9095" cy="12.4446" rx="25.9095" ry="12.4446" transform="matrix(0.829861 -0.55797 0.497717 0.86734 331.067 742.86)" fill="#2B315E" fill-opacity="0.63"/>
<ellipse cx="25.9095" cy="12.4446" rx="25.9095" ry="12.4446" transform="matrix(0.829861 -0.55797 0.497717 0.86734 385.91 539.556)" fill="#2B315E" fill-opacity="0.63"/>
<ellipse cx="25.9095" cy="12.4446" rx="25.9095" ry="12.4446" transform="matrix(0.829861 -0.55797 0.497717 0.86734 385.358 590.382)" fill="#2B315E" fill-opacity="0.63"/>
<ellipse cx="25.9095" cy="12.4446" rx="25.9095" ry="12.4446" transform="matrix(0.829861 -0.55797 0.497717 0.86734 385.358 641.208)" fill="#2B315E" fill-opacity="0.63"/>
<ellipse cx="25.9095" cy="12.4446" rx="25.9095" ry="12.4446" transform="matrix(0.829861 -0.55797 0.497717 0.86734 386.092 692.034)" fill="#2B315E" fill-opacity="0.63"/>
<ellipse cx="25.9095" cy="12.4446" rx="25.9095" ry="12.4446" transform="matrix(0.829861 -0.55797 0.497717 0.86734 386.092 742.86)" fill="#2B315E" fill-opacity="0.63"/>
<ellipse cx="25.9095" cy="12.4446" rx="25.9095" ry="12.4446" transform="matrix(0.829861 -0.55797 0.497717 0.86734 440.935 539.556)" fill="#2B315E" fill-opacity="0.63"/>
<ellipse cx="25.9095" cy="12.4446" rx="25.9095" ry="12.4446" transform="matrix(0.829861 -0.55797 0.497717 0.86734 440.384 590.382)" fill="#2B315E" fill-opacity="0.63"/>
<ellipse cx="25.9095" cy="12.4446" rx="25.9095" ry="12.4446" transform="matrix(0.829861 -0.55797 0.497717 0.86734 440.384 641.208)" fill="#2B315E" fill-opacity="0.63"/>
<ellipse cx="25.9095" cy="12.4446" rx="25.9095" ry="12.4446" transform="matrix(0.829861 -0.55797 0.497717 0.86734 441.117 692.034)" fill="#2B315E" fill-opacity="0.63"/>
<ellipse cx="25.9094" cy="12.4446" rx="25.9094" ry="12.4446" transform="matrix(0.829861 -0.55797 0.497717 0.86734 441.117 742.86)" fill="#2B315E" fill-opacity="0.63"/>
<ellipse cx="25.9095" cy="12.4446" rx="25.9095" ry="12.4446" transform="matrix(0.829861 -0.55797 0.497717 0.86734 495.96 539.556)" fill="#2B315E" fill-opacity="0.63"/>
<ellipse cx="25.9095" cy="12.4446" rx="25.9095" ry="12.4446" transform="matrix(0.829861 -0.55797 0.497717 0.86734 495.409 590.382)" fill="#2B315E" fill-opacity="0.63"/>
<ellipse cx="25.9095" cy="12.4446" rx="25.9095" ry="12.4446" transform="matrix(0.829861 -0.55797 0.497717 0.86734 495.409 641.208)" fill="#2B315E" fill-opacity="0.63"/>
<ellipse cx="25.9095" cy="12.4446" rx="25.9095" ry="12.4446" transform="matrix(0.829861 -0.55797 0.497717 0.86734 496.143 692.034)" fill="#2B315E" fill-opacity="0.63"/>
<ellipse cx="25.9095" cy="12.4446" rx="25.9095" ry="12.4446" transform="matrix(0.829861 -0.55797 0.497717 0.86734 496.143 742.86)" fill="#2B315E" fill-opacity="0.63"/>
</svg>
