<svg width="96" height="96" viewBox="0 0 96 96" fill="none" xmlns="http://www.w3.org/2000/svg">
<rect width="96" height="96" rx="5" fill="#232323"/>
<rect x="5.64282" y="5.64282" width="84.7143" height="84.7143" rx="2.5" fill="#232323" stroke="#BDBDBD"/>
<path d="M63.4285 39.4287L53.1428 51.3056L53.1427 27.5518L63.4285 39.4287Z" fill="#D9D9D9"/>
<path d="M53.1427 44.5715L25.7142 44.5715L25.7142 34.2858L53.1427 34.2858V44.5715Z" fill="#D9D9D9"/>
<path d="M25.7142 34.2858L25.7142 80.5715L20.5713 80.5715C17.731 80.5715 15.4285 78.269 15.4285 75.4287L15.4285 39.4287C15.4285 36.5884 17.731 34.2858 20.5713 34.2858H25.7142Z" fill="#D9D9D9"/>
<path d="M80.5713 80.5715H25.7142L25.7142 70.2858L80.5713 70.2858V80.5715Z" fill="#D9D9D9"/>
<path d="M32.5715 58.2857L42.8572 46.4088L42.8573 70.1626L32.5715 58.2857Z" fill="#D9D9D9"/>
<path d="M42.8573 53.1428L70.2858 53.1428L70.2858 63.4285L42.8573 63.4285L42.8573 53.1428Z" fill="#D9D9D9"/>
<path d="M70.2858 63.4285L70.2858 17.1428L75.4287 17.1428C78.269 17.1428 80.5715 19.4454 80.5715 22.2857L80.5715 58.2857C80.5715 61.126 78.269 63.4285 75.4287 63.4285L70.2858 63.4285Z" fill="#D9D9D9"/>
<path d="M15.4287 17.1428L70.2858 17.1428L70.2858 27.4285L15.4287 27.4285L15.4287 17.1428Z" fill="#D9D9D9"/>
</svg>
