<svg width="96" height="96" viewBox="0 0 96 96" fill="none" xmlns="http://www.w3.org/2000/svg">
<g clip-path="url(#clip0_73_894)">
<rect width="96" height="96" rx="10" fill="url(#paint0_linear_73_894)"/>
<path d="M24.766 33.6364V54H29.0714V45.5881H37.354V42.0384H29.0714V37.1861H38.2489V33.6364H24.766Z" fill="url(#paint1_linear_73_894)"/>
<path fill-rule="evenodd" clip-rule="evenodd" d="M42.8477 53.3438C43.9812 53.9801 45.3335 54.2983 46.9045 54.2983C48.1639 54.2983 49.2743 54.1061 50.2354 53.7216C51.2032 53.3305 51.9921 52.7869 52.6019 52.0909C53.2184 51.3883 53.6261 50.5663 53.8249 49.625L49.9073 49.3665C49.7615 49.7509 49.5494 50.0758 49.271 50.3409C48.9925 50.6061 48.6578 50.8049 48.2667 50.9375C47.8756 51.0701 47.4447 51.1364 46.9741 51.1364C46.2648 51.1364 45.6516 50.9872 45.1346 50.6889C44.6175 50.3906 44.2165 49.9664 43.9315 49.4162C43.6531 48.866 43.5139 48.2131 43.5139 47.4574V47.4474H53.9144V46.2841C53.9144 44.9848 53.7321 43.8513 53.3675 42.8835C53.003 41.9091 52.4925 41.1004 51.8363 40.4574C51.1867 39.8144 50.4244 39.3338 49.5494 39.0156C48.681 38.6908 47.743 38.5284 46.7354 38.5284C45.2373 38.5284 43.9315 38.8598 42.8178 39.5227C41.7108 40.1856 40.8524 41.1103 40.2425 42.2969C39.6327 43.4834 39.3278 44.8622 39.3278 46.4332C39.3278 48.044 39.6327 49.4394 40.2425 50.6193C40.8524 51.7926 41.7208 52.7008 42.8477 53.3438ZM43.5178 44.8224C43.5434 44.274 43.6846 43.7735 43.9414 43.321C44.2198 42.8239 44.6043 42.4295 45.0948 42.1378C45.592 41.8395 46.1621 41.6903 46.805 41.6903C47.4215 41.6903 47.9618 41.8262 48.4258 42.098C48.8964 42.3632 49.2643 42.7311 49.5295 43.2017C49.7946 43.6723 49.9272 44.2126 49.9272 44.8224H43.5178Z" fill="url(#paint2_linear_73_894)"/>
<path d="M64.9016 40.5767L60.7951 33.6364H55.913L62.1673 43.8182L55.7937 54H60.7255L64.9016 47.0497H65.0607L69.2369 54H74.1886L67.8349 43.8182L74.0494 33.6364H69.1871L65.0607 40.5767H64.9016Z" fill="url(#paint3_linear_73_894)"/>
<path fill-rule="evenodd" clip-rule="evenodd" d="M14 19C11.2386 19 9 21.2386 9 24V60C9 62.7614 11.2386 65 14 65H36V75H10C9.44772 75 9 75.4477 9 76C9 76.5523 9.44772 77 10 77H86V75H60V65H82C84.7614 65 87 62.7614 87 60V24C87 21.2386 84.7614 19 82 19H14ZM11 24C11 22.3431 12.3431 21 14 21H82C83.6569 21 85 22.3431 85 24V60C85 61.6569 83.6569 63 82 63H14C12.3431 63 11 61.6569 11 60V24Z" fill="url(#paint4_linear_73_894)"/>
<mask id="path-4-outside-1_73_894" maskUnits="userSpaceOnUse" x="53.3" y="51.8" width="40" height="41" fill="black">
<rect fill="white" x="53.3" y="51.8" width="40" height="41"/>
<path fill-rule="evenodd" clip-rule="evenodd" d="M87.2463 73.872C87.3183 73.272 87.3663 72.6481 87.3663 72C87.3663 71.352 87.3183 70.728 87.2223 70.128L91.2783 66.96C91.6383 66.672 91.7343 66.144 91.5183 65.736L87.6783 59.088C87.4383 58.656 86.9343 58.512 86.5023 58.656L81.7263 60.576C80.7183 59.808 79.6623 59.184 78.4863 58.704L77.7663 53.616C77.6943 53.136 77.2863 52.8 76.8063 52.8H69.1263C68.6463 52.8 68.2623 53.136 68.1903 53.616L67.4703 58.704C66.2943 59.184 65.2143 59.832 64.2303 60.576L59.4543 58.656C59.0223 58.488 58.5183 58.656 58.2783 59.088L54.4383 65.736C54.1983 66.168 54.2943 66.672 54.6783 66.96L58.7343 70.128C58.6383 70.728 58.5663 71.376 58.5663 72C58.5663 72.6241 58.6143 73.272 58.7103 73.872L54.6543 77.04C54.2943 77.328 54.1983 77.856 54.4143 78.264L58.2543 84.912C58.4943 85.344 58.9983 85.488 59.4303 85.344L64.2063 83.424C65.2143 84.192 66.2703 84.816 67.4463 85.296L68.1663 90.384C68.2623 90.864 68.6463 91.2001 69.1263 91.2001H76.8063C77.2863 91.2001 77.6943 90.864 77.7423 90.384L78.4623 85.296C79.6383 84.816 80.7183 84.168 81.7023 83.424L86.4783 85.344C86.9103 85.512 87.4143 85.344 87.6543 84.912L91.4943 78.264C91.7343 77.8321 91.6383 77.328 91.2543 77.04L87.2463 73.872ZM72.9663 79.2C69.0063 79.2 65.7663 75.96 65.7663 72C65.7663 68.04 69.0063 64.8 72.9663 64.8C76.9263 64.8 80.1663 68.04 80.1663 72C80.1663 75.96 76.9263 79.2 72.9663 79.2Z"/>
</mask>
<path fill-rule="evenodd" clip-rule="evenodd" d="M87.2463 73.872C87.3183 73.272 87.3663 72.6481 87.3663 72C87.3663 71.352 87.3183 70.728 87.2223 70.128L91.2783 66.96C91.6383 66.672 91.7343 66.144 91.5183 65.736L87.6783 59.088C87.4383 58.656 86.9343 58.512 86.5023 58.656L81.7263 60.576C80.7183 59.808 79.6623 59.184 78.4863 58.704L77.7663 53.616C77.6943 53.136 77.2863 52.8 76.8063 52.8H69.1263C68.6463 52.8 68.2623 53.136 68.1903 53.616L67.4703 58.704C66.2943 59.184 65.2143 59.832 64.2303 60.576L59.4543 58.656C59.0223 58.488 58.5183 58.656 58.2783 59.088L54.4383 65.736C54.1983 66.168 54.2943 66.672 54.6783 66.96L58.7343 70.128C58.6383 70.728 58.5663 71.376 58.5663 72C58.5663 72.6241 58.6143 73.272 58.7103 73.872L54.6543 77.04C54.2943 77.328 54.1983 77.856 54.4143 78.264L58.2543 84.912C58.4943 85.344 58.9983 85.488 59.4303 85.344L64.2063 83.424C65.2143 84.192 66.2703 84.816 67.4463 85.296L68.1663 90.384C68.2623 90.864 68.6463 91.2001 69.1263 91.2001H76.8063C77.2863 91.2001 77.6943 90.864 77.7423 90.384L78.4623 85.296C79.6383 84.816 80.7183 84.168 81.7023 83.424L86.4783 85.344C86.9103 85.512 87.4143 85.344 87.6543 84.912L91.4943 78.264C91.7343 77.8321 91.6383 77.328 91.2543 77.04L87.2463 73.872ZM72.9663 79.2C69.0063 79.2 65.7663 75.96 65.7663 72C65.7663 68.04 69.0063 64.8 72.9663 64.8C76.9263 64.8 80.1663 68.04 80.1663 72C80.1663 75.96 76.9263 79.2 72.9663 79.2Z" fill="url(#paint5_linear_73_894)"/>
<path d="M87.2223 70.128L86.6067 69.34L86.1416 69.7033L86.2348 70.286L87.2223 70.128ZM91.2783 66.96L91.8939 67.7482L91.903 67.7409L91.2783 66.96ZM91.5183 65.736L92.4021 65.2682L92.3934 65.2519L92.3842 65.2359L91.5183 65.736ZM87.6783 59.088L86.8041 59.5737L86.8082 59.581L86.8124 59.5882L87.6783 59.088ZM86.5023 58.656L86.1861 57.7074L86.1573 57.7169L86.1293 57.7282L86.5023 58.656ZM81.7263 60.576L81.1202 61.3715L81.5721 61.7158L82.0993 61.5039L81.7263 60.576ZM78.4863 58.704L77.4961 58.8442L77.5766 59.4128L78.1084 59.6299L78.4863 58.704ZM77.7663 53.616L78.7564 53.4759L78.7552 53.4677L77.7663 53.616ZM68.1903 53.616L67.2013 53.4677L67.2001 53.4759L68.1903 53.616ZM67.4703 58.704L67.8482 59.6299L68.3799 59.4128L68.4604 58.8442L67.4703 58.704ZM64.2303 60.576L63.8573 61.5039L64.3822 61.7149L64.8334 61.3737L64.2303 60.576ZM59.4543 58.656L59.8273 57.7282L59.8167 57.724L59.4543 58.656ZM58.2783 59.088L59.1442 59.5882L59.1484 59.581L59.1524 59.5737L58.2783 59.088ZM54.4383 65.736L53.5724 65.2359L53.5682 65.2431L53.5641 65.2504L54.4383 65.736ZM54.6783 66.96L55.2938 66.172L55.2861 66.1659L55.2783 66.16L54.6783 66.96ZM58.7343 70.128L59.7217 70.286L59.815 69.7033L59.3498 69.34L58.7343 70.128ZM58.7103 73.872L59.3258 74.6601L59.791 74.2968L59.6977 73.7141L58.7103 73.872ZM54.6543 77.04L54.0387 76.2519L54.0296 76.2592L54.6543 77.04ZM54.4143 78.264L53.5305 78.7319L53.5391 78.7482L53.5484 78.7642L54.4143 78.264ZM58.2543 84.912L59.1284 84.4264L59.1244 84.4191L59.1202 84.4119L58.2543 84.912ZM59.4303 85.344L59.7465 86.2927L59.7752 86.2832L59.8033 86.2719L59.4303 85.344ZM64.2063 83.424L64.8123 82.6286L64.3604 82.2843L63.8333 82.4962L64.2063 83.424ZM67.4463 85.296L68.4364 85.1559L68.3559 84.5872L67.8242 84.3702L67.4463 85.296ZM68.1663 90.384L67.1761 90.5242L67.1801 90.5523L67.1857 90.5802L68.1663 90.384ZM77.7423 90.384L76.7521 90.2439L76.7493 90.2642L76.7472 90.2845L77.7423 90.384ZM78.4623 85.296L78.0844 84.3702L77.5526 84.5872L77.4721 85.1559L78.4623 85.296ZM81.7023 83.424L82.0753 82.4962L81.5504 82.2852L81.0992 82.6264L81.7023 83.424ZM86.4783 85.344L86.1053 86.2719L86.1158 86.2761L86.4783 85.344ZM87.6543 84.912L86.7884 84.4119L86.7842 84.4191L86.7801 84.4264L87.6543 84.912ZM91.4943 78.264L92.3602 78.7642L92.3644 78.757L92.3684 78.7497L91.4943 78.264ZM91.2543 77.04L90.6342 77.8246L90.6441 77.8324L90.6543 77.84L91.2543 77.04ZM88.2392 73.9912C88.3146 73.3622 88.3663 72.6973 88.3663 72H86.3663C86.3663 72.5988 86.3219 73.1819 86.2534 73.7529L88.2392 73.9912ZM88.3663 72C88.3663 71.3026 88.3146 70.6256 88.2097 69.9701L86.2348 70.286C86.3219 70.8305 86.3663 71.4015 86.3663 72H88.3663ZM87.8378 70.9161L91.8938 67.7481L90.6627 66.172L86.6067 69.34L87.8378 70.9161ZM91.903 67.7409C92.6582 67.1367 92.8304 66.0773 92.4021 65.2682L90.6345 66.2039C90.6323 66.1999 90.6322 66.1979 90.6324 66.1989C90.6326 66.2003 90.6326 66.2026 90.6322 66.2047C90.6318 66.2067 90.6317 66.2052 90.6344 66.2006C90.6374 66.1954 90.6435 66.1873 90.6536 66.1792L91.903 67.7409ZM92.3842 65.2359L88.5442 58.5879L86.8124 59.5882L90.6524 66.2362L92.3842 65.2359ZM88.5524 58.6024C88.0454 57.6897 87.0061 57.434 86.1861 57.7074L86.8185 59.6047C86.8241 59.6029 86.8297 59.602 86.8345 59.602C86.8393 59.602 86.8405 59.6029 86.838 59.602C86.835 59.601 86.828 59.5979 86.8197 59.5911C86.8157 59.5878 86.8121 59.5842 86.8091 59.5807C86.8061 59.5771 86.8046 59.5745 86.8041 59.5737L88.5524 58.6024ZM86.1293 57.7282L81.3533 59.6482L82.0993 61.5039L86.8753 59.5839L86.1293 57.7282ZM82.3323 59.7806C81.2621 58.9652 80.1302 58.2949 78.8642 57.7782L78.1084 59.6299C79.1944 60.0732 80.1745 60.6509 81.1202 61.3715L82.3323 59.7806ZM79.4764 58.5639L78.7564 53.4759L76.7761 53.7562L77.4961 58.8442L79.4764 58.5639ZM78.7552 53.4677C78.6069 52.4791 77.7617 51.8 76.8063 51.8V53.8C76.8106 53.8 76.8045 53.8008 76.7951 53.793C76.7907 53.7892 76.7862 53.784 76.7825 53.7776C76.7787 53.7707 76.7775 53.7654 76.7773 53.7644L78.7552 53.4677ZM76.8063 51.8H69.1263V53.8H76.8063V51.8ZM69.1263 51.8C68.1397 51.8 67.345 52.5097 67.2013 53.4677L69.1792 53.7644C69.1803 53.757 69.1815 53.7572 69.1787 53.7623C69.176 53.7673 69.1709 53.7744 69.1628 53.7815C69.1546 53.7886 69.1455 53.7939 69.1369 53.7971C69.1281 53.8003 69.1237 53.8 69.1263 53.8V51.8ZM67.2001 53.4759L66.4801 58.5639L68.4604 58.8442L69.1804 53.7562L67.2001 53.4759ZM67.0924 57.7782C65.8234 58.2962 64.6685 58.991 63.6272 59.7784L64.8334 61.3737C65.76 60.6731 66.7652 60.0719 67.8482 59.6299L67.0924 57.7782ZM64.6033 59.6482L59.8273 57.7282L59.0813 59.5839L63.8573 61.5039L64.6033 59.6482ZM59.8167 57.724C58.9245 57.3771 57.8897 57.7283 57.4041 58.6024L59.1524 59.5737C59.1532 59.5724 59.1516 59.5755 59.1466 59.5797C59.142 59.5835 59.1365 59.5867 59.1306 59.5888C59.1193 59.5928 59.1051 59.5932 59.0918 59.5881L59.8167 57.724ZM57.4124 58.5879L53.5724 65.2359L55.3042 66.2362L59.1442 59.5882L57.4124 58.5879ZM53.5641 65.2504C53.0971 66.0911 53.2692 67.1532 54.0783 67.76L55.2783 66.16C55.2781 66.1599 55.2785 66.1602 55.2783 66.16C55.2781 66.1599 55.2785 66.1602 55.2783 66.1601C55.2783 66.1601 55.2783 66.1601 55.2783 66.1601C55.2783 66.1601 55.2783 66.1601 55.2784 66.1601C55.2784 66.1602 55.2785 66.1602 55.2786 66.1603C55.2789 66.1605 55.2792 66.1608 55.2796 66.1612C55.2805 66.162 55.2816 66.1631 55.283 66.1645C55.2858 66.1676 55.289 66.1717 55.2923 66.1768C55.299 66.1876 55.3037 66.1996 55.3059 66.2112C55.3081 66.2226 55.3074 66.2304 55.3069 66.2334C55.3064 66.2366 55.3065 66.2324 55.3124 66.2217L53.5641 65.2504ZM54.0627 67.7481L58.1187 70.9161L59.3498 69.34L55.2938 66.172L54.0627 67.7481ZM57.7468 69.9701C57.6461 70.5996 57.5663 71.3043 57.5663 72H59.5663C59.5663 71.4478 59.6305 70.8565 59.7217 70.286L57.7468 69.9701ZM57.5663 72C57.5663 72.6725 57.6178 73.3735 57.7228 74.03L59.6977 73.7141C59.6108 73.1706 59.5663 72.5756 59.5663 72H57.5663ZM58.0947 73.084L54.0387 76.252L55.2698 77.8281L59.3258 74.6601L58.0947 73.084ZM54.0296 76.2592C53.2743 76.8634 53.1021 77.9228 53.5305 78.7319L55.2981 77.7962C55.3002 77.8002 55.3003 77.8022 55.3002 77.8012C55.3 77.7998 55.3 77.7975 55.3004 77.7954C55.3008 77.7934 55.3009 77.7949 55.2982 77.7995C55.2952 77.8047 55.2891 77.8128 55.279 77.8209L54.0296 76.2592ZM53.5484 78.7642L57.3884 85.4122L59.1202 84.4119L55.2802 77.7639L53.5484 78.7642ZM57.3801 85.3977C57.8872 86.3104 58.9265 86.5661 59.7465 86.2927L59.114 84.3954C59.1085 84.3972 59.1028 84.398 59.098 84.398C59.0932 84.398 59.092 84.3972 59.0946 84.3981C59.0976 84.3991 59.1045 84.4022 59.1128 84.409C59.1169 84.4123 59.1205 84.4159 59.1234 84.4194C59.1264 84.423 59.128 84.4256 59.1284 84.4264L57.3801 85.3977ZM59.8033 86.2719L64.5793 84.3519L63.8333 82.4962L59.0573 84.4162L59.8033 86.2719ZM63.6002 84.2195C64.6705 85.0349 65.8024 85.7052 67.0684 86.2219L67.8242 84.3702C66.7382 83.9269 65.7581 83.3492 64.8123 82.6286L63.6002 84.2195ZM66.4561 85.4362L67.1761 90.5242L69.1564 90.2439L68.4364 85.1559L66.4561 85.4362ZM67.1857 90.5802C67.3677 91.49 68.1323 92.2001 69.1263 92.2001V90.2001C69.1247 90.2001 69.1252 90.1999 69.1272 90.2003C69.1292 90.2006 69.132 90.2014 69.1355 90.2026C69.1427 90.2053 69.1489 90.2092 69.1531 90.2128C69.1571 90.2163 69.1575 90.2179 69.1559 90.2151C69.1543 90.2124 69.1501 90.204 69.1469 90.1879L67.1857 90.5802ZM69.1263 92.2001H76.8063V90.2001H69.1263V92.2001ZM76.8063 92.2001C77.7509 92.2001 78.6334 91.5222 78.7373 90.4836L76.7472 90.2845C76.7482 90.275 76.7517 90.2608 76.7598 90.2455C76.7676 90.2309 76.777 90.2201 76.7855 90.2128C76.8023 90.1984 76.8123 90.2001 76.8063 90.2001V92.2001ZM78.7324 90.5242L79.4524 85.4362L77.4721 85.1559L76.7521 90.2439L78.7324 90.5242ZM78.8402 86.2219C80.1092 85.7039 81.264 85.0091 82.3054 84.2217L81.0992 82.6264C80.1725 83.327 79.1674 83.9282 78.0844 84.3702L78.8402 86.2219ZM81.3293 84.3519L86.1053 86.2719L86.8513 84.4162L82.0753 82.4962L81.3293 84.3519ZM86.1158 86.2761C87.0081 86.623 88.0428 86.2718 88.5284 85.3977L86.7801 84.4264C86.7794 84.4277 86.781 84.4246 86.786 84.4204C86.7906 84.4165 86.7961 84.4134 86.8019 84.4113C86.8133 84.4073 86.8274 84.4069 86.8407 84.412L86.1158 86.2761ZM88.5202 85.4122L92.3602 78.7642L90.6284 77.7639L86.7884 84.4119L88.5202 85.4122ZM92.3684 78.7497C92.8355 77.909 92.6633 76.8469 91.8543 76.24L90.6543 77.84C90.6545 77.8402 90.6541 77.8399 90.6543 77.84C90.6545 77.8402 90.6541 77.8399 90.6543 77.84C90.6543 77.84 90.6543 77.84 90.6543 77.84C90.6542 77.84 90.6542 77.84 90.6542 77.84C90.6541 77.8399 90.654 77.8399 90.6539 77.8398C90.6537 77.8396 90.6534 77.8393 90.6529 77.8389C90.6521 77.8381 90.6509 77.837 90.6496 77.8356C90.6468 77.8325 90.6435 77.8284 90.6403 77.8233C90.6335 77.8125 90.6289 77.8005 90.6267 77.7889C90.6244 77.7775 90.6251 77.7697 90.6256 77.7667C90.6262 77.7635 90.6261 77.7677 90.6201 77.7784L92.3684 78.7497ZM91.8744 76.2555L87.8664 73.0875L86.6262 74.6566L90.6342 77.8246L91.8744 76.2555ZM72.9663 78.2C69.5586 78.2 66.7663 75.4078 66.7663 72H64.7663C64.7663 76.5123 68.454 80.2 72.9663 80.2V78.2ZM66.7663 72C66.7663 68.5923 69.5586 65.8 72.9663 65.8V63.8C68.454 63.8 64.7663 67.4878 64.7663 72H66.7663ZM72.9663 65.8C76.374 65.8 79.1663 68.5923 79.1663 72H81.1663C81.1663 67.4878 77.4786 63.8 72.9663 63.8V65.8ZM79.1663 72C79.1663 75.4078 76.374 78.2 72.9663 78.2V80.2C77.4786 80.2 81.1663 76.5123 81.1663 72H79.1663Z" fill="url(#paint6_linear_73_894)" mask="url(#path-4-outside-1_73_894)"/>
</g>
<rect x="0.5" y="0.5" width="95" height="95" rx="9.5" stroke="url(#paint7_linear_73_894)"/>
<defs>
<linearGradient id="paint0_linear_73_894" x1="-3.57628e-07" y1="96" x2="96" y2="-3.57628e-07" gradientUnits="userSpaceOnUse">
<stop offset="0.274089"/>
<stop offset="0.671224" stop-color="#383838"/>
</linearGradient>
<linearGradient id="paint1_linear_73_894" x1="93" y1="4" x2="2" y2="94" gradientUnits="userSpaceOnUse">
<stop stop-color="#00F227"/>
<stop offset="1" stop-color="#001AFF"/>
</linearGradient>
<linearGradient id="paint2_linear_73_894" x1="93" y1="4" x2="2" y2="94" gradientUnits="userSpaceOnUse">
<stop stop-color="#00F227"/>
<stop offset="1" stop-color="#001AFF"/>
</linearGradient>
<linearGradient id="paint3_linear_73_894" x1="93" y1="4" x2="2" y2="94" gradientUnits="userSpaceOnUse">
<stop stop-color="#00F227"/>
<stop offset="1" stop-color="#001AFF"/>
</linearGradient>
<linearGradient id="paint4_linear_73_894" x1="93" y1="4" x2="2" y2="94" gradientUnits="userSpaceOnUse">
<stop stop-color="#00F227"/>
<stop offset="1" stop-color="#001AFF"/>
</linearGradient>
<linearGradient id="paint5_linear_73_894" x1="91.0001" y1="4.00006" x2="4.00006" y2="92.0001" gradientUnits="userSpaceOnUse">
<stop stop-color="#00F227"/>
<stop offset="1" stop-color="#001AFF"/>
</linearGradient>
<linearGradient id="paint6_linear_73_894" x1="4.00006" y1="92.0001" x2="91.0001" y2="1.00005" gradientUnits="userSpaceOnUse">
<stop offset="0.285938"/>
<stop offset="0.629984" stop-color="#383838"/>
</linearGradient>
<linearGradient id="paint7_linear_73_894" x1="96" y1="0" x2="-2" y2="96" gradientUnits="userSpaceOnUse">
<stop/>
<stop offset="1" stop-color="#666666"/>
</linearGradient>
<clipPath id="clip0_73_894">
<rect width="96" height="96" rx="10" fill="white"/>
</clipPath>
</defs>
</svg>
