<svg width="21" height="18" viewBox="0 0 21 18" fill="none" xmlns="http://www.w3.org/2000/svg">
<path d="M17.9434 2.84166C17.5178 2.41583 17.0124 2.07803 16.4562 1.84757C15.9 1.6171 15.3038 1.49847 14.7017 1.49847C14.0996 1.49847 13.5035 1.6171 12.9473 1.84757C12.391 2.07803 11.8857 2.41583 11.4601 2.84166L10.5767 3.725L9.69339 2.84166C8.83364 1.98192 7.66758 1.49892 6.45172 1.49892C5.23586 1.49892 4.0698 1.98192 3.21005 2.84166C2.35031 3.70141 1.86731 4.86747 1.86731 6.08333C1.86731 7.29919 2.35031 8.46525 3.21005 9.325L10.5767 16.6917L17.9434 9.325C18.3692 8.89937 18.707 8.39401 18.9375 7.83779C19.168 7.28158 19.2866 6.6854 19.2866 6.08333C19.2866 5.48126 19.168 4.88508 18.9375 4.32887C18.707 3.77265 18.3692 3.26729 17.9434 2.84166Z" stroke="#1E1E1E" stroke-width="2" stroke-linecap="round" stroke-linejoin="round"/>
</svg>
